<svg xmlns="http://www.w3.org/2000/svg" width="1248" height="344" viewBox="0 0 1248 344" fill="none">
  <g filter="url(#filter0_b_65_166)">
    <mask id="path-1-inside-1_65_166" fill="white">
      <path fillRule="evenodd" clipRule="evenodd" d="M1071.1 17.8655C1071.1 7.99865 1079.09 0 1088.96 0H1230.13C1240 0 1248 7.99865 1248 17.8655V61V63.5679V326.135C1248 336.001 1240 344 1230.13 344H476.365C466.499 344 458.5 336.001 458.5 326.135V313.167C458.5 303.301 450.501 295.302 440.635 295.302H358.8H267.365C257.499 295.302 249.5 303.301 249.5 313.167V326.135C249.5 336.001 241.501 344 231.635 344H17.8655C7.99866 344 0 336.001 0 326.135V78.8655C0 68.9986 7.99866 61 17.8655 61H1053.23C1063.1 61 1071.1 53.0014 1071.1 43.1345V17.8655Z"/>
    </mask>
    <path fillRule="evenodd" clipRule="evenodd" d="M1071.1 17.8655C1071.1 7.99865 1079.09 0 1088.96 0H1230.13C1240 0 1248 7.99865 1248 17.8655V61V63.5679V326.135C1248 336.001 1240 344 1230.13 344H476.365C466.499 344 458.5 336.001 458.5 326.135V313.167C458.5 303.301 450.501 295.302 440.635 295.302H358.8H267.365C257.499 295.302 249.5 303.301 249.5 313.167V326.135C249.5 336.001 241.501 344 231.635 344H17.8655C7.99866 344 0 336.001 0 326.135V78.8655C0 68.9986 7.99866 61 17.8655 61H1053.23C1063.1 61 1071.1 53.0014 1071.1 43.1345V17.8655Z" fill="#B6E7FB" fillOpacity="0.3"/>
    <path d="M1230.13 1H1088.96V-1H1230.13V1ZM1247 61V17.8655H1249V61H1247ZM1247 63.5679V61H1249V63.5679H1247ZM1247 326.135V63.5679H1249V326.135H1247ZM476.365 343H1230.13V345H476.365V343ZM459.5 313.167V326.135H457.5V313.167H459.5ZM358.8 294.302H440.635V296.302H358.8V294.302ZM267.365 294.302H358.8V296.302H267.365V294.302ZM248.5 326.135V313.167H250.5V326.135H248.5ZM17.8655 343H231.635V345H17.8655V343ZM1 78.8655V326.135H-1V78.8655H1ZM1053.23 62H17.8655V60H1053.23V62ZM1072.1 17.8655V43.1345H1070.1V17.8655H1072.1ZM17.8655 345C7.44641 345 -1 336.554 -1 326.135H1C1 335.449 8.5509 343 17.8655 343V345ZM250.5 326.135C250.5 336.554 242.054 345 231.635 345V343C240.949 343 248.5 335.449 248.5 326.135H250.5ZM267.365 296.302C258.051 296.302 250.5 303.853 250.5 313.167H248.5C248.5 302.748 256.946 294.302 267.365 294.302V296.302ZM1249 326.135C1249 336.554 1240.55 345 1230.13 345V343C1239.45 343 1247 335.449 1247 326.135H1249ZM457.5 313.167C457.5 303.853 449.949 296.302 440.635 296.302V294.302C451.054 294.302 459.5 302.748 459.5 313.167H457.5ZM1053.23 60C1062.54 60 1070.1 52.4491 1070.1 43.1345H1072.1C1072.1 53.5536 1063.65 62 1053.23 62V60ZM1088.96 1C1079.65 1 1072.1 8.55093 1072.1 17.8655H1070.1C1070.1 7.44636 1078.54 -1 1088.96 -1V1ZM476.365 345C465.946 345 457.5 336.554 457.5 326.135H459.5C459.5 335.449 467.051 343 476.365 343V345ZM-1 78.8655C-1 68.4464 7.44629 60 17.8655 60V62C8.5509 62 1 69.5509 1 78.8655H-1ZM1230.13 -1C1240.55 -1 1249 7.44636 1249 17.8655H1247C1247 8.55093 1239.45 1 1230.13 1V-1Z" fill="url(#paint0_linear_65_166)" mask="url(#path-1-inside-1_65_166)"/>
  </g>
  <defs>
    <filter id="filter0_b_65_166" x="-20" y="-20" width="1288" height="384" filterUnits="userSpaceOnUse" colorInterpolationFilters="sRGB">
      <feFlood floodOpacity="0" result="BackgroundImageFix"/>
      <feGaussianBlur in="BackgroundImageFix" stdDeviation="10"/>
      <feComposite in2="SourceAlpha" operator="in" result="effect1_backgroundBlur_65_166"/>
      <feBlend mode="normal" in="SourceGraphic" in2="effect1_backgroundBlur_65_166" result="shape"/>
    </filter>
    <linearGradient id="paint0_linear_65_166" x1="1418.02" y1="-76.4999" x2="54.1047" y2="445.942" gradientUnits="userSpaceOnUse">
      <stop stopColor="white"/>
      <stop offset="1" stopColor="white" stopOpacity="0"/>
    </linearGradient>
  </defs>
</svg>